# xmcd
#
# Track frame offsets: 
#        150
#        20913
#        37143
#        64539
#        82079
#        95177
#        106563
#        121384
#        145303
#        161847
#        176809
#        191293
#        208951
#
# Disc length: 2968 seconds
#
# Revision: 0
# Processed by: cddbd v1.5.2PL0 Copyright (c) Steve Scherf et al.
# Submitted via: ExactAudioCopyFreeDBPlugin 1.0
#
DISCID=c10b960d
DTITLE=Laura Lee - Two Sides Of Laura Lee +3
DYEAR=1972
DGENRE=
TTITLE0=At Last (My Love Has Come Along)
TTITLE1=Crumbs Off The Table
TTITLE2=Every Little Bit Hurts
TTITLE3=Guess Who I Saw Today
TTITLE4=If You Can Beat Me Rockin' (You Can Have My Chair)
TTITLE5=Workin' And Lovin' Together
TTITLE6=Rip Off
TTITLE7=When A Man Loves A Woman
TTITLE8=I'm Good Enough To Love (I'm Good Enough To Mary)
TTITLE9=You've Got To Save Me
TTITLE10=Crumbs Off The Table (Single Edit)
TTITLE11=I'll Catch You When You Fall
TTITLE12=I Can'T Hold Out Much Longer
EXTD=
EXTT0=
EXTT1=
EXTT2=
EXTT3=
EXTT4=
EXTT5=
EXTT6=
EXTT7=
EXTT8=
EXTT9=
EXTT10=
EXTT11=
EXTT12=
PLAYORDER=
